Coordinates
version=1
nRows=10
nColumns=40
inDegrees=yes

Units are S.I. units (second, meters, Newtons, ...)
Angles are in degrees.

endheader
time	pelvis_tilt	pelvis_list	pelvis_rotation	pelvis_tx	pelvis_ty	pelvis_tz	hip_flexion_r	hip_adduction_r	hip_rotation_r	knee_angle_r	knee_angle_r_beta	ankle_angle_r	subtalar_angle_r	mtp_angle_r	hip_flexion_l	hip_adduction_l	hip_rotation_l	knee_angle_l	knee_angle_l_beta	ankle_angle_l	subtalar_angle_l	mtp_angle_l	lumbar_extension	lumbar_bending	lumbar_rotation	arm_flex_r	arm_add_r	arm_rot_r	elbow_flex_r	pro_sup_r	wrist_flex_r	wrist_dev_r	arm_flex_l	arm_add_l	arm_rot_l	elbow_flex_l	pro_sup_l	wrist_flex_l	wrist_dev_l
      0.00000000	     -4.59460639	      5.62834527	      7.52526989	     -1.01611581	      0.95915183	     -1.39212293	     27.86758025	    -12.21305844	    -14.42207361	    -58.05841374	     -1.01331048	      5.36822527	    -16.57340404	     16.98662028	      2.99935629	     -4.18201085	     13.36842066	    -11.80764245	     -0.20608224	      3.45557173	      3.03667074	     -7.35904530	     -1.49248877	     -4.68269777	     -4.63468347	      2.01469299	    -10.87164477	     -5.93922113	     29.66123634	     89.95437384	      0.00000000	      0.00000000	      2.11640640	     16.16191544	      2.76170511	     18.64688371	     89.95437384	      0.00000000	      0.00000000
      0.01000000	     -4.79721503	      5.09073304	      7.95576149	     -1.00588366	      0.95845688	     -1.39587216	     28.96413178	    -11.64590887	    -15.70580457	    -55.74890574	     -0.97300196	      5.51687105	    -16.50169594	     16.88576888	      2.50851859	     -3.84900206	     12.70397365	    -11.65447251	     -0.20340892	      3.98988550	      3.05176619	     -7.49017652	     -1.42225454	     -4.10982019	     -5.39442714	      1.54521087	    -10.91018743	     -5.24960596	     28.91263210	     89.95437384	      0.00000000	      0.00000000	      3.61431373	     16.90817273	      3.42208070	     19.36987126	     89.95437384	      0.00000000	      0.00000000
      0.02000000	     -5.16269608	      5.12325705	      8.08351295	     -0.99557170	      0.95717814	     -1.39927041	     30.35808892	    -11.64434134	    -16.53321227	    -53.60992989	     -0.93566979	      5.80096732	    -16.15344274	     16.67737429	      2.15835678	     -4.10045036	     12.90773021	    -11.60533954	     -0.20255139	      4.36661704	      3.06795610	     -7.49315165	     -1.23787619	     -4.20483213	     -5.72882507	      0.82368777	    -10.84381094	     -4.90285551	     28.54599840	     89.95437384	      0.00000000	      0.00000000	      5.07173356	     17.77700678	      3.76370390	     20.31398094	     89.95437384	      0.00000000	      0.00000000
      0.03000000	     -4.97301433	      4.02285598	      8.86973082	     -0.98505848	      0.95684479	     -1.40282176	     30.53427789	    -10.55988039	    -18.49044456	    -50.46265049	     -0.88073940	      5.64648052	    -16.04636954	     16.84492901	      1.42415407	     -3.01344441	     11.81793017	    -11.68895762	     -0.20401080	      5.09790859	      3.20209915	     -8.09976620	     -1.56758021	     -2.95471946	     -7.21368056	      0.54963134	    -10.98841088	     -3.46887497	     27.91770277	     89.95437384	      0.00000000	      0.00000000	      6.42733868	     18.19438263	      6.75806432	     20.99290032	     89.95437384	      0.00000000	      0.00000000
      0.04000000	     -5.03968741	      3.60619145	      9.23390307	     -0.97450082	      0.95581051	     -1.40596986	     31.19322856	    -10.13579485	    -19.94552944	    -47.56062659	     -0.83008953	      5.60231365	    -15.61972433	     16.90296887	      0.81104561	     -2.66617882	     11.53163859	    -11.67928526	     -0.20384198	      5.64211617	      3.09437366	     -8.46293245	     -1.62961671	     -2.51976837	     -7.88497607	      0.00063326	    -10.98092444	     -3.03426164	     27.35624539	     89.95437384	      0.00000000	      0.00000000	      7.81902385	     18.94045245	      7.62437671	     21.91138838	     89.95437384	      0.00000000	      0.00000000
      0.05000000	     -5.43700593	      3.32875067	      9.34678787	     -0.96358884	      0.95407200	     -1.40857472	     32.20404487	     -9.67601476	    -20.85644844	    -44.59241104	     -0.77828439	      5.60617157	    -14.93006769	     16.85881732	      0.42041219	     -2.51933511	     11.42185576	    -11.48513315	     -0.20045339	      6.05397172	      2.98000971	     -8.62468280	     -1.29437815	     -2.31187725	     -8.32569180	     -0.67675470	    -10.90934337	     -2.80820220	     26.86876319	     89.95437384	      0.00000000	      0.00000000	      9.00674932	     19.72976381	      8.41700387	     22.90127347	     89.95437384	      0.00000000	      0.00000000
      0.06000000	     -5.62334840	      3.13765757	      9.61633441	     -0.95275028	      0.95258807	     -1.41121818	     32.83492602	     -9.32840174	    -21.79966608	    -41.43728485	     -0.72321705	      5.52305645	    -14.08311123	     16.80257305	     -0.13521806	     -2.36569139	     11.26134349	    -11.44401838	     -0.19973580	      6.46653140	      2.70246770	     -8.78044915	     -1.23885131	     -2.17479782	     -8.85693260	     -1.31700984	    -10.81250514	     -2.74588029	     26.40629073	     89.95437384	      0.00000000	      0.00000000	     10.26086779	     20.50316430	      9.18342300	     23.96350965	     89.95437384	      0.00000000	      0.00000000
      0.07000000	     -5.45123940	      2.68209671	      9.78252986	     -0.94112467	      0.95155385	     -1.41347972	     32.86471505	     -8.60399935	    -23.14368148	    -37.95285325	     -0.66240225	      5.40495590	    -13.21170301	     16.84224441	     -1.15149955	     -1.79873349	     11.45584819	    -11.26905543	     -0.19668212	      6.85752416	      2.22781096	     -9.15316677	     -1.48431089	     -1.67257204	     -9.38813734	     -1.85235735	    -10.78951977	     -2.58632381	     25.82901663	     89.95437384	      0.00000000	      0.00000000	     11.43570511	     21.14381384	     10.49551272	     24.94416589	     89.95437384	      0.00000000	      0.00000000
      0.08000000	     -5.52597767	      2.48589207	      9.92344559	     -0.92974260	      0.94994782	     -1.41569868	     33.19490083	     -8.14610631	    -24.11140596	    -34.61614759	     -0.60416575	      5.51717401	    -12.18398495	     16.77392180	     -1.93925193	     -1.55532411	     11.71000540	    -11.06654868	     -0.19314771	      7.12787052	      1.53846330	     -9.53945061	     -1.51396578	     -1.49693377	     -9.84130162	     -2.51642669	    -10.70902694	     -2.66506148	     25.49061619	     89.95437384	      0.00000000	      0.00000000	     12.48862285	     21.88057392	     11.30276683	     26.10331781	     89.95437384	      0.00000000	      0.00000000
      0.09000000	     -5.37565191	      2.37433637	     10.04638858	     -0.91797179	      0.94849995	     -1.41761528	     33.19688328	     -7.71440548	    -25.18427160	    -31.24613397	     -0.54534792	      5.65379967	    -11.09484617	     16.58609877	     -2.95916642	     -1.24602532	     12.49378490	    -10.97616856	     -0.19157028	      7.14764304	      0.14663517	    -10.28322962	     -1.80195946	     -1.38138417	    -10.30064093	     -3.14965049	    -10.63873813	     -2.66431057	     25.23338150	     89.95437384	      0.00000000	      0.00000000	     13.52142099	     22.63585035	     12.15811466	     27.24841315	     89.95437384	      0.00000000	      0.00000000
